<svg width="20" height="20" viewBox="0 0 20 20" fill="none" xmlns="http://www.w3.org/2000/svg">
<path d="M9.83333 7.16683C8.91667 7.16683 8.16667 7.91683 8.16667 8.83349C8.16667 9.75016 8.91667 10.5002 9.83333 10.5002C10.75 10.5002 11.5 9.75016 11.5 8.83349C11.5 7.91683 10.75 7.16683 9.83333 7.16683ZM9.83333 3.00016C12.5583 3.00016 15.6667 5.05016 15.6667 8.95849C15.6667 11.4418 13.8917 14.0585 10.3417 16.7835C10.0417 17.0168 9.625 17.0168 9.325 16.7835C5.775 14.0502 4 11.4418 4 8.95849C4 5.05016 7.10833 3.00016 9.83333 3.00016Z" fill="#9D99E4"/>
</svg>
